<svg width="49" height="46" viewBox="0 0 49 46" fill="none" xmlns="http://www.w3.org/2000/svg">
<g id="Group 6212">
<path id="Ellipse 2" d="M24.2783 44.5C11.6207 44.5 1.49998 34.7987 1.49998 23C1.49998 11.2013 11.6207 1.5 24.2783 1.5C36.9359 1.5 47.0566 11.2013 47.0566 23C47.0566 34.7987 36.9359 44.5 24.2783 44.5Z" stroke="#FC4317" stroke-width="3"/>
<path id="Vector" d="M24.7454 29.7396L35.8034 19.1156C36.0637 18.8654 36.0637 18.4643 35.8034 18.2141C35.543 17.964 35.1255 17.964 34.8651 18.2141L24.2787 28.385L13.6923 18.2141C13.4319 17.964 13.0144 17.964 12.754 18.2141C12.6263 18.3368 12.5575 18.502 12.5575 18.6625C12.5575 18.823 12.6214 18.9881 12.754 19.1109L23.812 29.7349C24.0675 29.985 24.4899 29.985 24.7454 29.7396Z" fill="#FC4317" stroke="#FC4317" stroke-width="3"/>
</g>
</svg>
