<svg width="168" height="159" viewBox="0 0 168 159" fill="none" xmlns="http://www.w3.org/2000/svg">
<circle cx="86" cy="82" r="77" fill="white"/>
<path d="M33.0403 125.941C29.6758 122.804 29.7183 118.359 33.128 114.702L41.5022 105.721L45.8907 109.812L37.8711 118.414C36.5072 119.876 36.3365 121.467 37.7408 122.777C39.2036 124.141 40.9775 123.88 42.5869 122.154L50.2792 113.904L54.6676 117.996L46.648 126.597C45.2841 128.06 45.1134 129.651 46.5177 130.96C47.9805 132.324 49.7544 132.064 51.3638 130.338L59.0561 122.087L63.4445 126.179L49.8058 140.807L45.4173 136.715L46.6721 135.37C45.0717 135.737 43.0752 135.297 41.1151 133.47C39.3889 131.86 38.7563 129.958 39.0828 127.966C37.1725 128.372 35.1175 127.878 33.0403 125.941Z" fill="#FC4317"/>
<path d="M39.8755 91.0582C40.9476 96.8396 37.2852 102.319 31.4251 103.406C25.5651 104.493 20.1816 100.69 19.1095 94.9089C18.0374 89.1275 21.6997 83.6479 27.5598 82.5612C33.4199 81.4746 38.8034 85.2767 39.8755 91.0582ZM34.1334 92.123C33.6593 89.5665 31.4462 87.9428 28.6538 88.4606C25.8614 88.9785 24.3775 91.2877 24.8516 93.8441C25.3256 96.4005 27.5388 98.0242 30.3312 97.5064C33.1236 96.9886 34.6074 94.6794 34.1334 92.123Z" fill="#FC4317"/>
<path d="M24.7439 65.9618C22.3729 64.4783 21.8513 61.5544 22.5211 59.1251L29.0765 60.9325C28.0317 63.217 28.0601 66.8762 31.8777 67.9287L40.5925 70.3316L38.9977 76.1157L19.7171 70.7998L21.3119 65.0156L24.7439 65.9618Z" fill="#FC4317"/>
<path d="M41.7473 51.3967C43.811 52.1998 45.5669 51.2937 47.0199 49.6418C48.103 48.4104 48.5471 46.9365 48.4147 45.7546L53.6573 43.9733C54.4051 47.2414 53.5014 50.3886 50.9917 53.2419C46.4742 58.3779 40.2199 58.5235 35.7447 54.5872C31.2696 50.6509 30.6687 44.3691 34.8428 39.6236C38.6998 35.2385 44.9469 34.98 49.4821 38.9691C50.1128 39.5239 50.6607 40.1123 51.1257 40.7344L41.7473 51.3967ZM38.3041 48.528L43.984 42.0705C41.8193 41.0188 39.9998 41.8156 38.811 43.1672C37.3051 44.8792 37.1422 46.7602 38.3041 48.528Z" fill="#FC4317"/>
<path d="M86.7529 10.184L92.7506 10.0178L93.526 38.0071L87.5283 38.1733L87.4762 36.294C86.1988 37.85 84.265 38.8239 81.5861 38.8981C76.3481 39.0432 71.9023 34.5646 71.7373 28.6069C71.5722 22.6492 75.7632 17.9313 81.0012 17.7862C83.6802 17.712 85.6649 18.5774 87.0265 20.0602L86.7529 10.184ZM82.6283 33.1871C85.3872 33.1106 87.3344 31.176 87.2513 28.1771C87.1683 25.1783 85.117 23.3544 82.358 23.4308C79.5991 23.5072 77.6519 25.4419 77.735 28.4407C77.8181 31.4396 79.8694 33.2635 82.6283 33.1871Z" fill="#FC4317"/>
<path d="M106.649 35.749C106.281 37.9328 107.525 39.4681 109.437 40.5556C110.863 41.3662 112.396 41.5018 113.527 41.1323L116.335 45.9041C113.287 47.2998 110.022 47.0538 106.718 45.1755C100.772 41.7946 99.3602 35.7 102.306 30.519C105.252 25.338 111.281 23.4745 116.775 26.5984C121.852 29.485 123.373 35.5495 120.388 40.8001C119.972 41.5303 119.507 42.1862 118.993 42.7678L106.649 35.749ZM108.759 31.7952L116.235 36.046C116.825 33.7129 115.676 32.093 114.111 31.2033C112.129 30.0763 110.254 30.2986 108.759 31.7952Z" fill="#FC4317"/>
<path d="M136.658 55.6038L134.358 52.1852L128.484 56.137C127.056 57.097 127.75 58.4144 129.356 60.5156L124.842 63.5519C119.803 57.4934 120.488 54.2843 125.135 51.1586L131.009 47.2068L129.223 44.5517L134.002 41.3367L135.788 43.9918L138.941 41.8708L143.784 45.8446L139.137 48.9703L141.437 52.3888L136.658 55.6038Z" fill="#FC4317"/>
<path d="M149.08 80.4905L149.806 86.4464L129.953 88.8668L129.227 82.9109L131.093 82.6834C129.424 81.557 128.274 79.7228 127.95 77.0624C127.315 71.861 131.359 67.016 137.275 66.2948C143.191 65.5735 148.28 69.3051 148.914 74.5066C149.239 77.1669 148.563 79.2238 147.214 80.718L149.08 80.4905ZM133.733 77.5662C134.067 80.306 136.175 82.0637 139.153 81.7007C142.131 81.3376 143.755 79.1248 143.421 76.3851C143.087 73.6454 140.979 71.8876 138.001 72.2507C135.023 72.6137 133.399 74.8265 133.733 77.5662Z" fill="#FC4317"/>
<path d="M147.653 103.457C148.238 101.587 150.293 100.511 152.164 101.097C154.034 101.683 155.11 103.738 154.524 105.608C153.938 107.479 151.883 108.554 150.013 107.968C148.142 107.383 147.067 105.328 147.653 103.457ZM127.783 94.0935L146.869 100.068L145.077 105.794L125.99 99.8195L127.783 94.0935Z" fill="#FC4317"/>
<path d="M122.776 106.435L146.895 122.894L143.513 127.85L119.394 111.391L122.776 106.435Z" fill="#FC4317"/>
<path d="M118.294 131.703C117.001 129.825 109.756 136.655 105.562 130.559C102.954 126.769 105.138 122.887 108.697 120.439C111.992 118.171 115.358 117.7 118.48 119.485L115.874 124.871C114.584 123.914 113.185 123.856 111.736 124.854C110.549 125.67 110.206 126.441 110.659 127.1C111.906 128.912 119.355 122.379 123.278 128.08C125.749 131.672 123.965 135.57 120.538 137.928C117.868 139.765 114.679 140.211 111.686 138.824L114.339 133.648C115.39 134.187 116.457 134.327 117.544 133.578C118.401 132.989 118.702 132.297 118.294 131.703Z" fill="#FC4317"/>
</svg>
