<svg width="225" height="75" viewBox="0 0 225 75" fill="none" xmlns="http://www.w3.org/2000/svg">
<path fill-rule="evenodd" clip-rule="evenodd" d="M163.261 8.37808C174.176 8.59921 182.851 10.7815 191.527 13.2319C219.981 21.2789 229.497 33.7643 209.999 46.0333C179.68 65.0596 109.06 77.5119 54.2988 71.7651C42.1711 70.4986 25.7521 69.3823 13.7178 63.1973C2.52303 57.4464 2.98948 50.6098 8.12041 44.2804C13.3446 37.7909 23.4199 31.8182 31.4428 27.9789C66.5197 11.2282 136.767 -3.99599 200.297 4.03006C201.603 4.1847 202.909 3.91876 203.282 3.43609C203.656 2.95343 203.002 2.43587 201.789 2.28122C136.393 -5.97881 63.9072 9.57226 27.8041 26.8112C17.8222 31.5985 4.76234 39.59 1.03076 47.8585C-1.48806 53.5098 0.284079 59.2867 9.9862 64.3121C22.7669 70.9004 40.2122 72.1909 53.0862 73.5397C109.62 79.4753 182.665 66.659 213.917 47.0085C234.907 33.8216 224.832 20.3892 194.233 11.7398C184.904 9.08114 175.388 6.78352 163.541 6.54403C162.234 6.51795 161.115 6.90768 161.115 7.41386C161.022 7.92003 162.048 8.352 163.261 8.37808Z" fill="#FC4317"/>
</svg>
