<svg width="393" height="372" viewBox="0 0 393 372" fill="none" xmlns="http://www.w3.org/2000/svg">
<path fill-rule="evenodd" clip-rule="evenodd" d="M300.616 14.6575C329.761 -41.6442 343.873 -104.968 319.027 -183.247C318.588 -184.642 317.029 -185.838 316.666 -186.099C314.515 -187.637 312.025 -188.815 309.928 -189.682C308.655 -190.209 303.239 -192.343 302.091 -191.249C301.307 -190.49 300.951 -182.765 300.481 -179.934C298.255 -166.611 297.37 -152.716 297.182 -138.516C296.713 -106.339 294.692 -74.9014 291.735 -43.789C290.082 -26.3182 287.539 -9.23896 284.231 7.48657C265.796 43.0264 241.355 75.7652 216.953 107.705C219.043 91.598 220.557 76.6167 222.595 64.5456C226.037 44.1924 228.608 23.4881 229.403 1.99162C229.824 -9.04727 229.914 -20.2201 229.263 -31.718C229.18 -32.9969 229.674 -35.6033 229.519 -37.0411C229.47 -37.644 229.198 -38.1868 228.973 -38.4765C227.552 -40.2968 223.794 -42.1304 221.877 -43.004C220.712 -43.5336 214.304 -46.3082 212.317 -45.2024C119.391 5.97233 151.035 117.008 59.611 169.189C58.5379 169.801 61.2307 172.032 65.6343 174.169C70.023 176.3 74.4737 177.54 75.5481 176.925C161.653 127.778 138.578 26.4184 213.253 -27.9646C213.418 -20.2132 213.286 -12.5913 213.003 -5.02966C212.208 16.427 209.638 37.0914 206.209 57.4144C202.743 77.8589 200.912 106.775 195.132 135.312C179.1 154.839 162.334 174.022 146.596 193.684C139.964 201.983 133.745 210.47 127.071 218.745C124.336 222.152 115.675 230.186 116.597 232.327C117.323 233.996 121.119 236.021 123.056 236.969C125.153 237.993 127.818 239.137 130.574 239.762C131.443 239.963 133.31 240.233 135.103 239.876C183.478 230.143 202.104 187.048 211.234 142.959C217.468 135.389 223.583 127.767 229.478 120.042C242.994 102.368 256.622 84.482 269.311 66.0376C250.77 125.735 223.406 181.51 193.049 235.962C180.298 258.821 138.981 317.326 116.555 337.609C115.141 336.605 113.064 335.456 110.704 334.424C106.191 332.452 102.352 331.67 102.145 332.685C100.992 338.426 101.149 342.116 102.166 344.006C102.793 345.18 104.149 346.274 105.071 346.912C107.289 348.458 109.853 349.71 112.362 350.726C113.926 351.357 115.674 351.971 117.373 352.34C118.535 352.6 120.4 352.797 121.915 352.387C138.444 347.872 194.173 270.563 209.357 243.345C249.453 171.406 284.331 97.1648 300.616 14.6575ZM147.405 221.069C163.675 210.793 174.778 195.173 182.577 177.183C175.904 185.137 169.29 193.12 162.836 201.179C157.565 207.749 152.574 214.449 147.405 221.069ZM310.452 -63.7999C312.138 -86.0951 313.252 -108.621 313.575 -131.52C313.622 -134.16 313.683 -136.79 313.76 -139.416C316.961 -112.498 315.436 -87.4334 310.452 -63.7999Z" fill="#252525"/>
</svg>
