<svg width="384" height="276" viewBox="0 0 384 276" fill="none" xmlns="http://www.w3.org/2000/svg">
<path fill-rule="evenodd" clip-rule="evenodd" d="M177.047 243.61C233.084 273.261 296.277 287.944 374.777 263.804C376.176 263.377 377.386 261.829 377.65 261.469C379.207 259.331 380.408 256.852 381.294 254.763C381.832 253.495 384.015 248.098 382.932 246.941C382.18 246.15 374.458 245.724 371.632 245.228C358.33 242.882 344.443 241.872 330.245 241.557C298.074 240.797 266.655 238.494 235.571 235.256C218.116 233.445 201.06 230.748 184.365 227.29C148.993 208.536 116.476 183.801 84.7575 159.112C100.845 161.346 115.812 162.995 127.864 165.142C148.185 168.768 168.865 171.525 190.354 172.514C201.389 173.034 212.56 173.226 224.063 172.678C225.343 172.606 227.945 173.123 229.384 172.982C229.987 172.938 230.533 172.671 230.824 172.449C232.657 171.044 234.525 167.302 235.416 165.394C235.956 164.234 238.788 157.851 237.7 155.854C187.365 62.4706 76.0489 93.113 24.6931 1.22209C24.0912 0.143537 21.8363 2.81616 19.6594 7.20024C17.4892 11.5696 16.209 16.0089 16.8139 17.0889C65.1828 103.633 166.747 81.4729 220.454 156.635C212.702 156.73 205.082 156.529 197.523 156.178C176.074 155.19 155.434 152.433 135.142 148.821C114.73 145.171 85.8311 143.08 57.3475 137.043C37.9662 120.836 18.935 103.897 -0.584546 87.9828C-8.82296 81.2767 -17.2537 74.9812 -25.4688 68.2323C-28.8503 65.4675 -36.8065 56.734 -38.956 57.6367C-40.6308 58.3473 -42.6901 62.1257 -43.6554 64.0534C-44.698 66.1417 -45.866 68.7965 -46.5162 71.5463C-46.7247 72.4132 -47.0123 74.2776 -46.6708 76.0744C-37.3743 124.535 5.55139 143.549 49.5564 153.075C57.0692 159.377 64.6363 165.561 72.3076 171.525C89.8596 185.2 107.622 198.988 125.951 211.843C66.423 192.765 10.8969 164.899 -43.2789 134.053C-66.0229 121.097 -124.153 79.2539 -144.233 56.6464C-143.216 55.2415 -142.049 53.1749 -140.995 50.8243C-138.982 46.3292 -138.167 42.4967 -139.179 42.2812C-144.91 41.0762 -148.601 41.1998 -150.5 42.1998C-151.68 42.8168 -152.786 44.1627 -153.432 45.0782C-154.998 47.2826 -156.272 49.8352 -157.311 52.3354C-157.957 53.8928 -158.586 55.6361 -158.971 57.3313C-159.241 58.4908 -159.454 60.3535 -159.058 61.8724C-154.692 78.4413 -77.8888 134.865 -50.8088 150.294C20.7657 191.036 94.6897 226.582 177.047 243.61ZM-27.9754 88.5446C-17.8468 104.907 -2.32779 116.15 15.5916 124.111C7.69854 117.367 -0.224571 110.681 -8.22511 104.155C-14.7479 98.8249 -21.4023 93.7731 -27.9754 88.5446ZM255.412 254.153C277.691 256.039 300.206 257.357 323.101 257.886C325.741 257.957 328.37 258.041 330.996 258.141C304.05 261.1 279 259.35 255.412 254.153Z" fill="#252525"/>
</svg>
