<svg width="334" height="162" viewBox="0 0 334 162" fill="none" xmlns="http://www.w3.org/2000/svg">
<path fill-rule="evenodd" clip-rule="evenodd" d="M270.202 -127.654C311.153 -176.051 339.014 -234.641 332.225 -316.488C332.107 -317.946 330.854 -319.459 330.558 -319.794C328.803 -321.772 326.638 -323.475 324.787 -324.788C323.664 -325.585 318.858 -328.872 317.496 -328.061C316.563 -327.496 314.495 -320.044 313.406 -317.389C308.269 -304.896 304.312 -291.548 300.967 -277.746C293.343 -246.482 284.372 -216.283 274.56 -186.611C269.057 -169.947 262.775 -153.863 255.825 -138.294C229.938 -107.752 198.82 -81.2789 167.918 -55.576C173.542 -70.8127 178.354 -85.0806 183.029 -96.3947C190.918 -115.47 198.035 -135.082 203.598 -155.862C206.467 -166.529 209.043 -177.401 210.969 -188.756C211.172 -190.021 212.234 -192.452 212.404 -193.888C212.49 -194.487 212.346 -195.076 212.191 -195.409C211.211 -197.5 207.956 -200.125 206.282 -201.403C205.264 -202.179 199.635 -206.311 197.451 -205.675C95.4623 -176.481 101.584 -61.1869 0.83421 -30.6763C-0.348129 -30.3191 1.78028 -27.5446 5.59722 -24.4803C9.4012 -21.4257 13.4639 -19.2255 14.6483 -19.5854C109.536 -48.3219 109.614 -152.275 194.525 -188.662C192.96 -181.068 191.133 -173.668 189.174 -166.359C183.62 -145.618 176.512 -126.045 168.643 -106.996C160.711 -87.8368 152.487 -60.0542 140.497 -33.5212C120.518 -18.0555 99.9012 -3.08808 80.1796 12.5753C71.8663 19.1885 63.9132 26.0775 55.5632 32.6588C52.139 35.3705 41.9057 41.2744 42.3278 43.5672C42.6636 45.3553 45.9141 48.1751 47.5907 49.5304C49.4076 50.9957 51.7511 52.7045 54.2982 53.9278C55.1004 54.317 56.8602 54.9967 58.6885 55.0475C108.016 56.3324 135.772 18.4675 154.491 -22.4811C162.254 -28.472 169.913 -34.541 177.381 -40.7589C194.493 -54.9797 211.762 -69.381 228.24 -84.5363C196.87 -30.4672 157.772 17.8129 116.05 64.1363C98.5288 83.5823 45.2202 131.416 18.8404 146.196C17.6856 144.902 15.9166 143.319 13.8458 141.787C9.88531 138.859 6.31598 137.243 5.88887 138.186C3.48592 143.526 2.8172 147.158 3.38781 149.227C3.73813 150.511 4.81626 151.88 5.57227 152.707C7.39067 154.709 9.61164 156.499 11.8318 158.049C13.215 159.013 14.7834 160 16.357 160.739C17.4319 161.251 19.2058 161.858 20.7742 161.796C37.8936 161.075 109.441 98.1189 130.305 74.9661C185.415 13.7635 235.951 -50.8457 270.202 -127.654ZM74.8691 39.4524C93.0195 33.0583 107.322 20.3036 118.931 4.50169C110.655 10.7695 102.429 17.079 94.343 23.4984C87.7409 28.7301 81.3827 34.1498 74.8691 39.4524ZM297.264 -201.951C303.872 -223.31 309.975 -245.022 315.39 -267.274C316.024 -269.837 316.668 -272.388 317.328 -274.931C314.454 -247.976 307.386 -223.881 297.264 -201.951Z" fill="white"/>
</svg>
