<svg width="150" height="491" viewBox="0 0 150 491" fill="none" xmlns="http://www.w3.org/2000/svg">
<path fill-rule="evenodd" clip-rule="evenodd" d="M270.201 201.346C311.153 152.949 339.013 94.3586 332.225 12.5119C332.106 11.0539 330.853 9.54065 330.558 9.20591C328.803 7.22757 326.638 5.52461 324.787 4.21212C323.663 3.41487 318.858 0.12803 317.496 0.9389C316.562 1.50444 314.495 8.95592 313.406 11.6113C308.269 24.1035 304.312 37.4524 300.966 51.2544C293.343 82.5185 284.372 112.717 274.56 142.389C269.057 159.053 262.774 175.137 255.825 190.706C229.938 221.248 198.82 247.721 167.918 273.424C173.541 258.187 178.354 243.919 183.029 232.605C190.918 213.53 198.035 193.918 203.597 173.138C206.466 162.471 209.043 151.599 210.968 140.244C211.172 138.979 212.234 136.548 212.403 135.112C212.49 134.513 212.346 133.924 212.191 133.591C211.211 131.5 207.955 128.875 206.281 127.597C205.263 126.821 199.634 122.689 197.451 123.325C95.4618 152.519 101.583 267.813 0.833722 298.324C-0.348617 298.681 1.77979 301.455 5.59673 304.52C9.40071 307.574 13.4635 309.775 14.6478 309.415C109.535 280.678 109.614 176.725 194.525 140.338C192.959 147.932 191.133 155.332 189.173 162.641C183.62 183.382 176.512 202.955 168.643 222.004C160.711 241.163 152.486 268.946 140.496 295.479C120.518 310.944 99.9007 325.912 80.1791 341.575C71.8658 348.189 63.9127 355.077 55.5627 361.659C52.1386 364.371 41.9053 370.274 42.3273 372.567C42.6631 374.355 45.9136 377.175 47.5902 378.53C49.4071 379.996 51.7506 381.704 54.2977 382.928C55.0999 383.317 56.8597 383.997 58.688 384.048C108.015 385.332 135.771 347.468 154.491 306.519C162.253 300.528 169.913 294.459 177.38 288.241C194.493 274.02 211.762 259.619 228.239 244.464C196.869 298.533 157.771 346.813 116.05 393.136C98.5283 412.582 45.2197 460.416 18.84 475.196C17.6851 473.902 15.9161 472.319 13.8453 470.787C9.88483 467.859 6.31549 466.243 5.88838 467.186C3.48544 472.526 2.81671 476.158 3.38732 478.227C3.73764 479.511 4.81577 480.88 5.57178 481.707C7.39018 483.709 9.61115 485.499 11.8313 487.049C13.2145 488.013 14.7829 489 16.3565 489.739C17.4315 490.251 19.2053 490.858 20.7737 490.796C37.8931 490.075 109.44 427.119 130.304 403.966C185.414 342.763 235.95 278.154 270.201 201.346ZM74.8686 368.452C93.019 362.058 107.322 349.304 118.931 333.502C110.655 339.77 102.429 346.079 94.3425 352.498C87.7404 357.73 81.3822 363.15 74.8686 368.452ZM297.263 127.049C303.872 105.69 309.975 83.9776 315.389 61.7258C316.023 59.1628 316.668 56.6123 317.328 54.0688C314.454 81.0239 307.386 105.119 297.263 127.049Z" fill="white"/>
</svg>
