<svg width="297" height="569" viewBox="0 0 297 569" fill="none" xmlns="http://www.w3.org/2000/svg">
<path fill-rule="evenodd" clip-rule="evenodd" d="M-87.0789 230.478C-136.635 266.561 -185.883 302.419 -235.965 334.504C-237.461 335.463 -240.535 332.569 -242.829 328.041C-245.123 323.512 -245.769 319.064 -244.272 318.105C-194.442 286.181 -145.334 250.425 -95.8525 214.398C20.6251 129.592 139.169 43.2803 274.063 1.89855C277.566 0.823831 280.415 0.244876 282.646 0.165126C283.755 0.125493 284.804 0.204294 285.773 0.46753C286.54 0.675621 287.979 1.15432 289.765 2.98796C290.846 4.09829 292.393 6.06299 293.826 9.00475C295.202 11.8296 295.768 14.1144 295.999 15.4581C296.405 17.829 296.144 19.4187 295.954 20.3104C295.513 22.3866 294.478 24.6093 293.127 26.9162C287.654 36.2585 274.723 50.5857 258.864 66.5596C235.619 89.9711 205.74 117.248 182.836 138.157C174.403 145.855 166.916 152.691 161.053 158.152C97.768 217.106 -28.1935 335.407 -119.643 429.822C-165.402 477.065 -202.414 518.222 -218.654 542.956C-220.512 545.785 -222.075 548.367 -223.339 550.688C-218.058 549.308 -210.929 546.468 -201.748 541.977C-106.382 495.327 -19.0722 431.298 68.1862 367.306C105.592 339.875 142.988 312.45 181.005 286.404C187.774 280.505 194.615 274.743 201.539 269.142C216.425 257.102 231.45 247.584 247.705 238.572C248.766 237.983 250.147 236.555 251.758 234.709C252.178 234.228 252.611 233.722 253.052 233.207C254.226 231.835 255.451 230.404 256.602 229.245C257.401 228.44 258.213 227.714 259.005 227.196C259.752 226.706 260.66 226.276 261.685 226.352C262.19 226.389 262.986 226.56 264.052 227.33C265.228 228.179 266.941 229.935 268.695 233.041C270.298 235.878 271.131 238.433 271.542 239.955C271.967 241.527 272.19 242.901 272.324 244.008C273.776 256.033 268.945 258.479 264.373 259.233C262.79 259.493 261.011 259.567 259.336 259.637C258.57 259.669 257.826 259.7 257.132 259.747C254.796 259.907 252.827 260.25 251.4 261.21L248.867 262.911C238.602 269.811 228.331 276.714 218.007 283.514C208.455 289.805 198.947 296.206 189.474 302.696C150.472 336.699 113.821 375.31 77.2668 413.951C76.4059 414.861 73.7235 416.934 69.8883 419.897C67.3139 421.887 64.2201 424.277 60.8091 426.987C52.2083 433.82 41.3689 442.843 31.0108 453.065C20.638 463.301 10.8147 474.676 4.20092 486.19C0.890226 491.954 -1.5565 497.652 -2.88548 503.137C-3.4524 505.476 -3.78174 507.65 -3.92277 509.628C-3.5582 509.565 -3.18789 509.491 -2.81408 509.412C-2.5784 509.362 -2.3367 509.308 -2.09284 509.255C-1.19903 509.057 -0.275902 508.853 0.487969 508.788C17.9715 507.285 38.9134 492.876 52.3032 483.663C52.8183 483.309 53.3222 482.962 53.8142 482.624C106.223 446.629 155.329 403.907 203.942 360.485C210.947 354.227 215.951 349.669 219.412 346.46C221.199 344.522 222.965 342.77 224.262 341.546C224.991 340.858 225.587 340.322 225.961 340.01L225.972 340.001C226.101 339.894 226.342 339.693 226.553 339.596C226.593 339.578 226.695 339.533 226.836 339.507C226.896 339.498 227.031 339.49 227.149 339.49C227.183 339.49 227.215 339.491 227.244 339.493C227.477 339.531 228.254 339.843 228.826 340.214C230.258 341.547 233.585 346.705 234.936 350.183C235.083 350.779 235.203 351.425 235.296 352.032C236.406 351.508 237.567 350.95 238.781 350.357C240.368 349.58 243.465 352.65 245.697 357.213C247.93 361.777 248.452 366.106 246.865 366.882C238.151 371.145 232.003 373.645 227.805 374.84C225.718 375.434 224.032 375.73 222.702 375.725C222.047 375.722 221.365 375.648 220.68 375.416C220.336 375.3 219.891 375.111 219.367 374.773C218.901 374.472 218.078 373.866 217.033 372.638C215.636 373.894 214.142 375.233 212.547 376.658C163.93 420.084 114.725 462.896 62.1828 498.983C61.633 499.361 61.0665 499.751 60.4843 500.152C47.2365 509.273 25.8742 523.981 7.73246 525.541C7.15365 525.59 6.45879 525.743 5.60249 525.932C5.33119 525.991 5.04369 526.055 4.73855 526.119C3.55055 526.371 2.15329 526.627 0.763178 526.598C-0.452658 526.573 -2.31342 526.359 -4.44238 524.688C-5.63514 523.752 -7.52187 521.875 -9.4781 518.41C-11.4361 514.942 -12.4049 511.758 -12.8691 509.63C-14.579 501.795 -14.013 494.966 -12.5634 488.983C-11.0643 482.796 -8.39456 476.684 -4.98433 470.747C1.84373 458.86 11.8803 447.274 22.3148 436.977C32.764 426.665 43.6795 417.581 52.3104 410.724C56.0113 407.784 59.2537 405.281 61.8591 403.27C65.4061 400.531 67.7725 398.705 68.5083 397.927C77.1991 388.74 85.9006 379.549 94.6424 370.417C88.7148 374.756 82.7885 379.102 76.861 383.448C-10.5166 447.522 -98.1372 511.774 -193.664 558.502C-203.032 563.085 -210.398 566.02 -215.928 567.435C-218.688 568.14 -221.056 568.485 -223.034 568.438C-224.023 568.415 -224.976 568.293 -225.881 568.03C-226.732 567.783 -227.798 567.343 -228.999 566.396C-230.167 565.476 -232.44 563.263 -234.568 558.903C-236.533 554.875 -236.97 551.844 -237.088 550.472C-237.33 547.667 -236.782 545.278 -236.134 543.274C-234.735 538.946 -231.823 533.569 -227.732 527.338C-211.306 502.321 -174.097 460.975 -128.38 413.776C-36.8787 319.307 89.1272 200.965 152.41 142.014C158.304 136.523 165.815 129.666 174.266 121.951C197.162 101.049 226.953 73.8531 250.149 50.4901C261.808 38.747 271.716 28.0542 278.24 19.6632C145.205 61.3459 28.2281 146.52 -87.0789 230.478ZM292.154 17.2131C292.154 17.2143 292.134 17.2057 292.094 17.1832C292.135 17.2006 292.155 17.2119 292.154 17.2131ZM286.296 5.96506C286.296 5.93967 286.298 5.92713 286.298 5.92719C286.298 5.92729 286.298 5.93988 286.296 5.96506ZM221.512 371.82C221.511 371.819 221.514 371.795 221.524 371.748C221.518 371.797 221.513 371.82 221.512 371.82Z" fill="#252525"/>
</svg>
